<?xml version="1.0" standalone="no"?>
<!DOCTYPE svg PUBLIC "-//W3C//DTD SVG 1.1//EN" "http://www.w3.org/Graphics/SVG/1.1/DTD/svg11.dtd" >
<svg xmlns="http://www.w3.org/2000/svg">
<metadata></metadata>
<defs>
<font id="intro_thin_altregular" horiz-adv-x="711" >
<font-face units-per-em="1000" ascent="750" descent="-250" />
<missing-glyph horiz-adv-x="271" />
<glyph horiz-adv-x="0" />
<glyph horiz-adv-x="333" />
<glyph unicode=" "  horiz-adv-x="271" />
<glyph unicode="&#x09;" horiz-adv-x="271" />
<glyph unicode="&#xa0;" horiz-adv-x="271" />
<glyph unicode="!" horiz-adv-x="212" d="M97 111v588h18v-588h-18zM105 -12q-16 0 -16 16q0 15 16 15q17 0 17 -15q0 -7 -5 -11.5t-12 -4.5z" />
<glyph unicode="&#x22;" horiz-adv-x="284" d="M82 497v203h17l-2 -203h-15zM185 497v203h17l-2 -203h-15z" />
<glyph unicode="#" horiz-adv-x="675" d="M256 699h17l-35 -241h250l36 241h18l-36 -241h117v-17h-120l-30 -204h120v-17h-123l-31 -220h-18l32 220h-250l-33 -220h-18l33 220h-132v17h135l30 204h-135v17h138zM205 237h251l29 204h-249z" />
<glyph unicode="$" horiz-adv-x="646" d="M575 535h-17q-4 53 -41.5 89.5t-85 51t-100.5 16.5v-324q34 -5 49.5 -7.5t46 -8.5t45.5 -12t38 -15.5t35 -22t25 -29.5t18 -38.5t5 -48.5q0 -64 -42.5 -109.5t-99.5 -64.5t-120 -21v-66h-14v66q-98 0 -176 47.5t-86 136.5h17q8 -82 80.5 -123.5t164.5 -44.5v345 q-48 7 -74.5 12.5t-64 18t-57 29t-34 45t-14.5 66.5q0 61 39 104t92 61.5t113 20.5v66h14v-66q93 -3 165.5 -46t78.5 -128zM317 370v322q-87 -3 -157 -46t-70 -123q0 -43 20 -73t58.5 -45.5t70 -22.5t78.5 -12zM331 350v-343q58 2 111 19.5t93 59t40 100.5q0 37 -14.5 64.5 t-34.5 43.5t-56.5 28t-64.5 17t-74 11z" />
<glyph unicode="%" horiz-adv-x="762" d="M541 698h20l-341 -699h-21zM328 553q0 37 -15 66.5t-38.5 44.5t-52 22t-57 0t-52 -22t-38.5 -44.5t-15 -66.5t15 -66.5t38.5 -45t52 -22.5t57 0t52 22.5t38.5 45t15 66.5zM345 553q0 -42 -16.5 -75t-43.5 -50.5t-59 -25.5t-64.5 0t-59.5 25.5t-43.5 50.5t-16.5 75 t16.5 75t43.5 50.5t59.5 25.5t64.5 0t59 -25.5t43.5 -50.5t16.5 -75zM702 144q0 43 -20 75t-49.5 46t-64.5 14t-64.5 -14t-49.5 -46t-20 -75t20 -75t49.5 -46.5t64.5 -14.5t64.5 14t49.5 46t20 76zM720 144q0 -42 -17 -75t-43.5 -50.5t-59 -25.5t-65 0t-59 25.5t-43.5 50.5 t-17 75t17 75t43.5 50.5t59 25.5t65 0t59 -25.5t43.5 -50.5t17 -75z" />
<glyph unicode="&#x26;" horiz-adv-x="655" d="M611 396v-14h-82v-153q0 -109 -62.5 -173.5t-171.5 -64.5q-97 0 -167 57.5t-70 151.5q-1 157 171 195q-35 8 -59 21q-69 41 -69 131q0 77 63 119t144 42q84 0 141 -38t66 -117l-18 -1q-8 71 -60.5 105.5t-128.5 34.5q-72 0 -130.5 -38t-58.5 -107q0 -81 60 -115 q41 -26 100 -29q13 -1 40 -1v-16q-26 0 -41 -1q-203 -15 -203 -185q0 -87 65 -139.5t155 -52.5q103 0 160 59t57 162v167h99z" />
<glyph unicode="'" horiz-adv-x="180" d="M82 497v203h17l-3 -203h-14z" />
<glyph unicode="(" horiz-adv-x="259" d="M210 748l12 -12q-98 -94 -132 -272.5t3 -357t129 -278.5l-12 -12q-71 77 -111.5 205t-43 261.5t37 262t117.5 203.5z" />
<glyph unicode=")" horiz-adv-x="258" d="M37 736l12 12q77 -73 116.5 -200.5t37.5 -261.5t-42.5 -263.5t-111.5 -206.5l-12 12q92 100 129 278.5t3 357t-132 272.5z" />
<glyph unicode="*" horiz-adv-x="414" d="M75 612l127 -43l1 133h16l-1 -132l121 47l5 -15l-121 -47l87 -111l-13 -10l-87 111l-86 -111l-13 10l86 110l-127 43z" />
<glyph unicode="+" horiz-adv-x="480" d="M232 358h-158v15h158v159h16v-159h158v-15h-158v-156h-16v156z" />
<glyph unicode="," horiz-adv-x="172" d="M103 8q0 -6 -1 -7l-24 -79h-16l20 70q-12 3 -12 16q0 15 16 15q17 0 17 -15z" />
<glyph unicode="-" horiz-adv-x="451" d="M376 325h-301v17h301v-17z" />
<glyph unicode="." horiz-adv-x="189" d="M94 -3q-8 0 -13.5 5.5t-5.5 12.5q0 19 19 19q20 0 20 -19q0 -7 -6 -12.5t-14 -5.5z" />
<glyph unicode="/" horiz-adv-x="438" d="M40 1l338 699h20l-339 -699h-19z" />
<glyph unicode="0" horiz-adv-x="670" d="M336 708q110 0 182.5 -66t72.5 -175v-236q0 -110 -72.5 -175.5t-182.5 -65.5q-111 0 -184 66t-73 175v236q0 109 73.5 175t183.5 66zM336 691q-104 0 -171.5 -61t-67.5 -163v-236q0 -102 67.5 -163t171.5 -61q102 0 170 61t68 163v236q0 102 -68 163t-170 61z" />
<glyph unicode="1" horiz-adv-x="414" d="M49 0v16h156v669h-138v15h155v-684h157v-16h-330z" />
<glyph unicode="2" horiz-adv-x="555" d="M498 17v-17h-446v4l325 367q70 83 70 168q0 68 -46 111t-134 43q-89 -1 -132 -38t-51 -119h-16q8 87 55.5 130t143.5 44q97 0 147 -48.5t50 -123.5q0 -93 -76 -178l-301 -343h411z" />
<glyph unicode="3" horiz-adv-x="586" d="M59 172h17q14 -80 69 -123t137 -43q101 0 161 54t60 153q0 98 -84 156t-175 22v16l250 274h-406v16h440v-5l-251 -276q92 20 167.5 -44t75.5 -159q0 -106 -65 -165t-173 -59q-91 0 -150.5 47.5t-72.5 135.5z" />
<glyph unicode="4" horiz-adv-x="577" d="M453 0h-17v172h-396v10l404 518h9v-511h79v-17h-79v-172zM436 408v250h-1l-366 -469h367v219z" />
<glyph unicode="5" horiz-adv-x="584" d="M486 700v-17h-378v-263q72 25 153 25q119 0 193.5 -57t74.5 -171q0 -101 -68 -163.5t-170 -62.5q-85 0 -147 45t-80 126h17q18 -74 74.5 -114t135.5 -40q95 0 158 57.5t63 151.5q0 106 -69.5 158.5t-181.5 52.5q-77 0 -171 -33v305h396z" />
<glyph unicode="6" horiz-adv-x="581" d="M520 215q0 94 -67.5 149.5t-163.5 55.5q-95 0 -161 -55t-66 -150q0 -94 66.5 -149.5t161.5 -55.5q96 0 163 55.5t67 149.5zM328 701h22l-203 -301q65 38 142 38q103 0 175.5 -60.5t72.5 -162.5q0 -101 -72 -161.5t-175 -60.5t-174 60.5t-71 161.5q0 77 42 133z" />
<glyph unicode="7" horiz-adv-x="508" d="M51 700h436v-3l-347 -697h-20l340 683h-409v17z" />
<glyph unicode="8" horiz-adv-x="600" d="M503 543q0 -60 -37 -100.5t-95 -55.5q76 -17 125.5 -67t49.5 -128q0 -95 -73 -148t-173 -53t-173 53t-73 148q0 79 48.5 128.5t124.5 66.5q-56 15 -91.5 55t-35.5 101q0 79 59.5 122.5t140.5 43.5t142 -43.5t61 -122.5zM299 378q-92 0 -160 -49t-68 -137 q0 -87 68.5 -135.5t160.5 -48.5t161 48t69 136q0 90 -69 138t-162 48zM299 395q74 0 129.5 39t55.5 109q0 71 -54.5 110t-129.5 39q-73 0 -128 -39t-55 -110q0 -70 54.5 -109t127.5 -39z" />
<glyph unicode="9" horiz-adv-x="581" d="M62 491q0 -94 67 -149.5t163 -55.5q95 0 161.5 55.5t66.5 149.5t-67 149.5t-162 55.5q-97 0 -163 -55t-66 -150zM253 0h-21l204 307q-67 -39 -144 -39q-103 0 -175.5 60.5t-72.5 162.5q0 103 71.5 162.5t175.5 59.5q103 0 174.5 -60t71.5 -162q0 -75 -44 -133z" />
<glyph unicode=":" horiz-adv-x="189" d="M94 352q-8 0 -13.5 5.5t-5.5 12.5q0 19 19 19q20 0 20 -19q0 -7 -6 -12.5t-14 -5.5zM94 -3q-8 0 -13.5 5.5t-5.5 12.5q0 19 19 19q20 0 20 -19q0 -7 -6 -12.5t-14 -5.5z" />
<glyph unicode=";" horiz-adv-x="209" d="M102 355q-7 0 -11.5 4.5t-4.5 10.5q0 16 16 16q17 0 17 -16q0 -6 -5 -10.5t-12 -4.5zM122 8q0 -6 -1 -7l-21 -66h-16l17 57q-12 3 -12 16q0 15 16 15q17 0 17 -15z" />
<glyph unicode="&#x3c;" horiz-adv-x="499" d="M420 522v-19l-338 -154l338 -164v-18l-361 175v15z" />
<glyph unicode="=" horiz-adv-x="517" d="M437 400h-357v17h357v-17zM437 226h-357v17h357v-17z" />
<glyph unicode="&#x3e;" horiz-adv-x="499" d="M79 503v19l361 -165v-15l-361 -175v18l338 165z" />
<glyph unicode="?" horiz-adv-x="482" d="M61 549h-17q11 79 66 116t138 37q79 0 133.5 -46t54.5 -123q0 -50 -20 -86t-49 -61.5t-57.5 -55t-48.5 -84.5t-20 -133h-18q0 59 11 105t28 75t37.5 52t41.5 41.5t38 37.5t28 46.5t11 62.5q0 71 -49 111t-121 40q-165 0 -187 -135zM231 -11q-17 0 -17 17q0 15 17 15 t17 -15q0 -17 -17 -17z" />
<glyph unicode="@" horiz-adv-x="890" d="M672 419l-28 -313q-2 -22 -3 -42t8 -33.5t30 -13.5q34 -1 61 24t43 65t24.5 76t12.5 69q16 165 -76 265t-257 100q-163 0 -277.5 -103t-128.5 -265q-8 -85 12 -155.5t62 -117t100.5 -71.5t131 -23.5t148.5 29.5l-2 -18q-79 -28 -153.5 -29t-135 26t-105 75.5t-64.5 122 t-12 161.5q16 170 134.5 278t290.5 108t269 -105.5t81 -277.5q-4 -36 -13.5 -75t-28 -81t-50 -68.5t-70.5 -25.5q-27 0 -39.5 15t-12.5 38t2 52l3 33q-28 -64 -87.5 -102.5t-128.5 -38.5q-102 0 -154.5 73t-42.5 177q9 116 83.5 183t173.5 67q122 -2 199 -79zM637 225 l17 187q-64 63 -182 68q-92 0 -161 -61.5t-78 -170.5q-9 -98 38.5 -165t142.5 -67q88 0 150.5 60t72.5 149z" />
<glyph unicode="A" d="M687 0h-18l-110 231h-408l-110 -231h-18v1l329 700h8l327 -700v-1zM158 248h394l-196 419z" />
<glyph unicode="B" horiz-adv-x="664" d="M122 373h231q95 0 148.5 34t53.5 122q0 89 -53 122.5t-149 33.5h-231v-312zM454 367q152 -30 152 -178q0 -94 -61.5 -140t-160.5 -46h-279v700h248q219 0 219 -174q0 -129 -118 -162zM353 356h-231v-336h262q92 0 148 41t56 128q0 77 -52 123q-25 20 -58.5 30.5t-58 12 t-66.5 1.5z" />
<glyph unicode="C" horiz-adv-x="763" d="M708 521h-19q-39 80 -114.5 125t-166.5 45q-147 2 -239.5 -95.5t-92.5 -245.5t92 -244.5t239 -96.5q96 0 174.5 48.5t113.5 135.5h18q-35 -94 -118.5 -147.5t-186.5 -53.5q-154 0 -252 101t-98 257q0 155 98 258t253 101q98 -2 179 -51t120 -137z" />
<glyph unicode="D" horiz-adv-x="736" d="M339 682h-216v-665h215q143 0 232.5 94t89.5 238q0 143 -89 238t-232 95zM105 700h234q151 0 244.5 -100t93.5 -251t-94 -250t-244 -99h-234v700z" />
<glyph unicode="E" horiz-adv-x="575" d="M500 700v-17h-378v-313h365v-16h-365v-337h380v-17h-397v700h395z" />
<glyph unicode="F" horiz-adv-x="564" d="M482 358v-17h-359v-341h-18v700h402v-17h-384v-325h359z" />
<glyph unicode="G" horiz-adv-x="786" d="M706 522h-20q-72 170 -286 170q-145 -2 -235 -97.5t-90 -241.5q0 -150 88.5 -247.5t236.5 -97.5q142 0 231 91t93 234h-307v16h324q-2 -102 -33 -169q-41 -90 -119.5 -140t-188.5 -50q-154 0 -248 103.5t-94 259.5q0 153 96 255t247 102q227 0 305 -188z" />
<glyph unicode="H" horiz-adv-x="717" d="M105 700h17v-323h472v323h18v-700h-18v360h-472v-360h-17v700z" />
<glyph unicode="I" horiz-adv-x="358" d="M322 685h-134v-669h143v-16h-304v16h143v669h-134v15h286v-15z" />
<glyph unicode="J" horiz-adv-x="650" d="M319 682v18h234v-463q0 -114 -71.5 -180.5t-186.5 -66.5q-114 0 -182.5 66.5t-68.5 180.5v61h18v-61q0 -107 63 -168t170 -61t173 61.5t66 167.5v445h-215z" />
<glyph unicode="K" horiz-adv-x="626" d="M122 700v-346q154 0 197 25q54 33 98 184q27 81 64 114t115 22v-16q-72 8 -106 -21.5t-56 -103.5q-1 -4 -8.5 -27.5t-10.5 -31.5l-10.5 -28t-13.5 -30.5t-15 -25.5t-19 -26t-22 -20l274 -367v-2h-20l-269 359q-40 -23 -198 -23v-336h-17v700h17z" />
<glyph unicode="L" horiz-adv-x="515" d="M105 700h18v-684h372v-16h-390v700z" />
<glyph unicode="M" horiz-adv-x="821" d="M123 0h-18v701h11l295 -450l295 450h10v-701h-18v658l-283 -434h-8l-284 434v-658z" />
<glyph unicode="N" horiz-adv-x="740" d="M617 701h18v-701h-8l-505 661v-661h-17v701h10l503 -659z" />
<glyph unicode="O" horiz-adv-x="822" d="M746 350q0 150 -94 246t-242 96q-147 0 -240.5 -96t-93.5 -246t93.5 -246.5t240.5 -96.5q148 0 242 96.5t94 246.5zM764 350q0 -158 -99 -259t-255 -101q-155 0 -253.5 101t-98.5 259t98.5 259t253.5 101q156 0 255 -101t99 -259z" />
<glyph unicode="P" horiz-adv-x="646" d="M122 684v-415h244q95 0 159 57t64 150q0 92 -63.5 150t-159.5 58h-76h-91h-77zM366 251h-244v-250h-17v700h261q104 0 172.5 -62.5t68.5 -162.5q0 -101 -69 -163t-172 -62z" />
<glyph unicode="Q" horiz-adv-x="822" d="M747 352q0 149 -94.5 245.5t-241.5 96.5t-241 -96.5t-94 -245.5q0 -150 94 -246.5t241 -96.5t241.5 96.5t94.5 246.5zM666 94l68 -96v-3h-19l-61 87q-99 -90 -243 -90q-155 0 -254 101t-99 259q0 156 99.5 258t253.5 102q155 0 254 -101.5t99 -258.5q0 -158 -98 -258z " />
<glyph unicode="R" horiz-adv-x="662" d="M123 1h-18v700h260q98 0 164 -57t66 -153q0 -91 -59.5 -147.5t-150.5 -62.5l239 -277v-3h-22l-238 280h-241v-280zM578 491q0 87 -61.5 140t-151.5 53h-242v-387h242q90 0 151.5 52.5t61.5 141.5z" />
<glyph unicode="S" horiz-adv-x="645" d="M572 537h-17q-5 54 -45.5 91t-91.5 51.5t-104 12.5q-55 -2 -103.5 -18.5t-85 -56t-36.5 -94.5q0 -36 15 -62.5t37 -41.5t54.5 -25.5t60.5 -15.5t62 -9q7 -1 10 -1q30 -4 44 -6.5t41.5 -7.5t41.5 -9.5t36 -12.5t33.5 -16.5t26.5 -22t22 -28.5t12 -35t5 -44 q-1 -64 -43.5 -109.5t-98.5 -64.5t-119 -21q-64 -2 -122.5 15t-104 61t-50.5 108h18q5 -59 48.5 -98.5t97 -54.5t112.5 -15q58 2 110.5 19.5t93 59t41.5 100.5q0 37 -15 64.5t-31.5 42.5t-56 27.5t-60 16.5t-73.5 12q-8 1 -12 2q-40 5 -64 9t-58 12t-54 20t-40 29.5t-29 43 t-9 58.5q0 60 38 103.5t91 62.5t113 21q59 2 114 -14.5t97.5 -57.5t47.5 -101z" />
<glyph unicode="T" horiz-adv-x="546" d="M282 0h-18v682h-245v18h508v-18h-245v-682z" />
<glyph unicode="U" horiz-adv-x="706" d="M97 700h18v-458q0 -109 65 -171t175 -62q108 0 173 62.5t65 170.5v458h16v-458q0 -116 -68.5 -183.5t-185.5 -67.5t-187.5 68t-70.5 183v458z" />
<glyph unicode="V" horiz-adv-x="654" d="M39 700h18l142 -353l129 -312h1l125 312l143 353h17v-2l-283 -699h-7l-285 699v2z" />
<glyph unicode="W" horiz-adv-x="942" d="M49 700h16l90 -304l104 -348l208 639h8l209 -638h1l101 348l89 303h18v-1l-206 -701h-5l-211 643l-210 -643h-6l-206 699v3z" />
<glyph unicode="X" horiz-adv-x="591" d="M552 700v-1l-246 -331l273 -367v-1h-21l-262 353h-1l-262 -353h-21v2l273 366l-246 330v2h21l235 -317h1l236 317h20z" />
<glyph unicode="Y" horiz-adv-x="622" d="M320 0h-18v294l-265 405v1h20l254 -386l254 386h19v-2l-264 -404v-294z" />
<glyph unicode="Z" horiz-adv-x="569" d="M53 682v18h482v-3l-486 -679h486v-18h-519v1l487 681h-450z" />
<glyph unicode="[" horiz-adv-x="269" d="M224 740v-17h-112v-865h112v-19h-130v901h130z" />
<glyph unicode="\" horiz-adv-x="438" d="M60 700l338 -699h-19l-339 699h20z" />
<glyph unicode="]" horiz-adv-x="269" d="M45 723v17h130v-901h-130v19h112v865h-112z" />
<glyph unicode="^" horiz-adv-x="480" d="M411 430h-20l-154 244l-148 -244h-20l161 265h14z" />
<glyph unicode="_" horiz-adv-x="616" d="M541 -30h-466v17h466v-17z" />
<glyph unicode="`" horiz-adv-x="336" d="M115 709l15 11l98 -134v-2h-19l-94 123v2z" />
<glyph unicode="a" horiz-adv-x="585" d="M313 491q87 0 179 -46v-350q0 -26 1 -37t7 -25t20 -17t39 1l2 -18q-30 -5 -48.5 -0.5t-26 20.5t-9.5 31.5t-2 44.5v40q-23 -65 -78.5 -103t-124.5 -38q-103 0 -161 73t-58 178q0 112 72.5 179t187.5 67zM71 245q0 -98 53 -165t148 -67t149 64t54 168v188q-80 41 -162 41 q-107 0 -174.5 -61.5t-67.5 -167.5z" />
<glyph unicode="b" horiz-adv-x="576" d="M83 725h18v-384q19 66 70.5 108.5t125.5 42.5q99 0 164 -66.5t61 -189.5q-4 -117 -74 -182.5t-184 -65.5q-87 0 -181 46v691zM101 236v-191q86 -39 163 -39q107 0 172 61.5t67 168.5q2 118 -56 178t-150 60q-63 0 -109 -36t-66.5 -88.5t-20.5 -113.5z" />
<glyph unicode="c" horiz-adv-x="568" d="M516 363h-18q-25 54 -76.5 83t-113.5 29q-95 1 -166.5 -61t-71.5 -171q0 -108 70 -170t163 -62q66 0 121 33t80 95h19q-26 -71 -86.5 -108.5t-134.5 -37.5q-100 1 -174.5 67.5t-74.5 182.5t77 182.5t179 66.5q69 0 125.5 -33.5t81.5 -95.5z" />
<glyph unicode="d" horiz-adv-x="594" d="M495 736l-1 -641q0 -26 1 -37t7 -25t20 -17t39 1l2 -18q-30 -5 -48.5 -0.5t-26 20.5t-9.5 31.5t-2 44.5v40q-23 -65 -78.5 -103t-124.5 -38q-103 0 -161.5 73t-58.5 178q0 111 57.5 184.5t163.5 73.5q75 0 129.5 -41t72.5 -113v387h18zM72 245q0 -98 53.5 -165t148.5 -67 t149 64t54 168q0 103 -51 171.5t-151 68.5t-151.5 -68.5t-51.5 -171.5z" />
<glyph unicode="e" horiz-adv-x="542" d="M471 43l-1 -20q-78 -31 -161 -31q-133 2 -201.5 84.5t-50.5 212.5q14 95 79.5 149t168.5 54q78 0 138 -40t52 -113q-3 -36 -22.5 -62t-49.5 -40t-61 -20t-65 -6q-61 0 -122 17t-101 51q-14 -118 49.5 -193.5t185.5 -75.5q79 -2 162 33zM78 298q36 -35 97.5 -53t121.5 -18 q30 0 58.5 5.5t55.5 17.5t45 35t21 54q5 45 -22.5 76.5t-67.5 44.5t-84 13q-90 1 -149 -44.5t-76 -130.5z" />
<glyph unicode="f" horiz-adv-x="361" d="M154 0h-17v460h-117v16h117v88q0 79 35 124.5t90 48.5t123 -27l-7 -15q-62 26 -112 24.5t-81 -42t-31 -113.5v-88h198v-16h-198v-460z" />
<glyph unicode="g" horiz-adv-x="573" d="M87 -208l9 15q90 -52 184 -52q85 1 139.5 52t54.5 155v182q-22 -72 -73.5 -114.5t-124.5 -42.5q-96 0 -159 68t-63 188q0 113 71.5 180.5t184.5 67.5q88 0 180 -46v-483q0 -112 -58.5 -168t-150.5 -57q-97 -2 -194 55zM473 243v190q-79 40 -163 40q-107 0 -173 -62 t-66 -168q0 -113 58 -175.5t147 -62.5q94 0 145.5 71.5t51.5 166.5z" />
<glyph unicode="h" horiz-adv-x="587" d="M106 -3h-19v732h18v-363q22 59 70.5 92t116.5 33q95 -2 146 -55.5t51 -148.5v-192v-21t1 -17.5t2.5 -16t5 -12t8.5 -10t12.5 -5.5t18 -2.5t24.5 3.5l2 -17q-60 -11 -76 13t-16 85v191q0 89 -46 137.5t-133 49.5q-85 0 -135.5 -52.5t-50.5 -136.5v-287z" />
<glyph unicode="i" horiz-adv-x="199" d="M91 480h17v-480h-17v480zM83 661q0 18 18 18q16 0 16 -18t-16 -18q-18 0 -18 18z" />
<glyph unicode="j" horiz-adv-x="200" d="M83 661q0 18 17 18t17 -18t-17 -18t-17 18zM91 480h18v-537q0 -54 -6 -88.5t-22.5 -63.5t-50 -38.5t-85.5 -0.5l1 18q24 -5 44 -5t34.5 4.5t25.5 12.5t18 21t12 27t7 33.5t3 37.5t1 42v537z" />
<glyph unicode="k" horiz-adv-x="512" d="M440 483h17q0 -189 -162 -230l186 -249v-3h-20l-185 248q-36 -6 -77 -6h-94v-242h-18v730h18v-470h94q241 0 241 222z" />
<glyph unicode="l" horiz-adv-x="250" d="M82 734h19v-555q0 -24 1 -40.5t3 -35t6.5 -30t12 -24t18 -18t25.5 -11.5t34.5 -4t44.5 3l2 -19q-53 -8 -87 0.5t-50.5 35t-22.5 59.5t-6 84v555z" />
<glyph unicode="m" horiz-adv-x="895" d="M18 472v14q49 8 70 -11.5t21 -66.5v-32q49 115 184 117q129 0 156 -132q21 62 69 97t118 35q157 0 157 -199v-183q0 -61 7 -76q14 -30 69 -19v-16q-15 -3 -27.5 -3t-22 2t-16.5 7t-11.5 10t-8 14t-5 16t-2.5 20t-1 21.5v23.5v183q0 182 -139 182q-83 0 -132 -53t-49 -137 v-284h-17v284q0 85 -33 137.5t-112 50.5q-85 0 -134.5 -52t-49.5 -136v-284h-18v406q0 40 -16 55t-57 9z" />
<glyph unicode="n" horiz-adv-x="592" d="M31 469l-2 16q50 7 68 -10t18 -66v-34q23 56 72.5 86.5t111.5 30.5q88 0 142.5 -56t54.5 -143v-197v-20t0.5 -16.5t2.5 -16t5 -12t8 -10.5l12.5 -5t18 -2.5t23.5 2.5v-18q-56 -9 -71.5 13.5t-15.5 84.5v197q0 80 -50 130.5t-130 50.5q-82 0 -133 -51.5t-51 -133.5v-289 h-17v409q0 40 -13 53t-54 7z" />
<glyph unicode="o" horiz-adv-x="610" d="M539 242q0 108 -69 169t-164 62q-96 1 -166 -60t-70 -171t70 -171t166 -60q95 1 164 62t69 169zM557 242q0 -117 -74 -182t-176 -66q-103 -1 -178.5 64.5t-75.5 183.5q0 117 75 182.5t177 65.5t177 -65.5t75 -182.5z" />
<glyph unicode="p" horiz-adv-x="589" d="M95 -246v642v6v15.5t-0.5 14t-2 12.5t-3.5 10.5t-5.5 9t-8.5 6t-11.5 4.5t-15.5 1t-20 -2l-2 18q31 4 49 0t26 -19.5t10 -31t2 -44.5v-43q23 66 78.5 104.5t125.5 38.5q102 0 160.5 -73t58.5 -178q0 -110 -57.5 -184t-164.5 -74q-72 0 -127 43.5t-76 113.5v-390h-16z M519 245q0 98 -53.5 165t-148.5 67t-149.5 -63.5t-54.5 -160.5q0 -104 51.5 -176t149.5 -72q100 0 152.5 68.5t52.5 171.5z" />
<glyph unicode="q" horiz-adv-x="574" d="M491 -246h-16v390q-24 -72 -74.5 -114.5t-122.5 -42.5q-97 0 -160.5 68t-63.5 188q0 113 71.5 180.5t184.5 67.5q89 0 181 -46v-691zM473 243v190q-79 40 -163 40q-107 0 -172.5 -62t-65.5 -168q0 -114 58 -176t148 -62q93 0 144 71t51 167z" />
<glyph unicode="r" horiz-adv-x="402" d="M113 0h-18v401q0 25 -1 35t-7 22.5t-20 15.5t-39 0l-2 15q55 8 71 -13.5t16 -73.5q17 45 58 70.5t93 25.5q65 0 123 -40l-9 -15q-53 37 -114 37q-59 0 -105 -41.5t-46 -100.5v-338z" />
<glyph unicode="s" horiz-adv-x="506" d="M46 125h19q6 -56 61 -86.5t129 -30.5q73 0 127.5 33.5t56.5 90.5q0 32 -12.5 53.5t-42.5 32.5t-50.5 15t-65.5 9q-11 1 -16 2q-103 12 -137 29q-51 25 -53 81q-2 64 55 100t135 36t134.5 -32t56.5 -89h-18q0 49 -51.5 76.5t-121.5 27.5q-72 0 -123.5 -31t-49.5 -88 q1 -21 11.5 -36.5t25.5 -24.5t40.5 -15.5t46 -9.5t51.5 -6q105 -14 138 -28q66 -29 64 -102q0 -65 -59 -102.5t-141 -39.5q-81 0 -141.5 35t-68.5 100z" />
<glyph unicode="t" horiz-adv-x="385" d="M137 629h18v-150h197v-15h-197v-274q0 -243 216 -165l6 -16q-121 -43 -180.5 4.5t-59.5 176.5v274l-116 1v14h116v150z" />
<glyph unicode="u" horiz-adv-x="564" d="M536 9l2 -16q-57 -8 -71.5 15.5t-14.5 104.5q-46 -122 -189 -122q-86 0 -134.5 57t-48.5 147v287h17v-287q0 -83 43.5 -134.5t122.5 -51.5q84 0 136 51t52 136v286h17v-371q0 -74 12 -91t56 -11z" />
<glyph unicode="v" horiz-adv-x="565" d="M290 13q100 0 147 53.5t51 141.5q5 124 -56 276h19q59 -155 55 -276q-7 -213 -216 -213q-88 2 -141.5 56.5t-53.5 142.5v197q0 28 -1 39t-7 25.5t-21.5 17.5t-41.5 -1v17q57 8 74 -15t15 -83v-197q0 -79 49 -130t128 -51z" />
<glyph unicode="w" horiz-adv-x="861" d="M270 13q74 0 119.5 49.5t45.5 125.5v294h17v-294q0 -76 45.5 -125.5t119.5 -49.5q162 0 167 181q4 124 -59 290h17q64 -165 60 -291q-5 -196 -185 -196q-65 0 -111 35t-62 93q-16 -59 -62.5 -94.5t-111.5 -33.5q-80 0 -130 54t-50 137v203q0 27 -1 38.5t-7 26.5t-21 18.5 t-41 -0.5v15q56 8 72 -14.5t16 -83.5v-203q0 -77 44.5 -126t117.5 -49z" />
<glyph unicode="x" horiz-adv-x="457" d="M46 482h22l161 -212h1l167 212h20v-2l-177 -224l194 -254v-2h-20l-184 241h-1l-190 -241h-21v2l201 254l-173 225v1z" />
<glyph unicode="y" horiz-adv-x="615" d="M123 -209l5 18q58 -34 124 -44.5t124 3t96.5 64t38.5 130.5v182q-22 -71 -73 -114t-124 -43q-97 0 -154 59.5t-57 178.5v160q0 52 -12.5 71t-62.5 10l-1 15q59 11 76.5 -13t17.5 -83v-160q0 -220 193 -220q94 0 145.5 71.5t51.5 166.5v239h17v-520q0 -84 -40 -138.5 t-101 -71.5t-131.5 -7t-132.5 46z" />
<glyph unicode="z" horiz-adv-x="446" d="M51 464v18h360v-6l-351 -458h347v-18h-381v4l354 460h-329z" />
<glyph unicode="{" horiz-adv-x="266" d="M221 749v-18q-58 0 -81.5 -22.5t-23.5 -81.5v-201q0 -104 -46 -130q46 -26 46 -130v-201q0 -59 23 -81.5t82 -22.5v-18q-67 0 -94.5 27.5t-27.5 94.5l-1 201q0 22 -1 36.5t-5.5 35.5t-16.5 33.5t-31 16.5v15q19 4 31 17t16.5 34t5.5 35.5t1 36.5l1 201q0 67 27.5 94.5 t94.5 27.5z" />
<glyph unicode="|" horiz-adv-x="209" d="M96 -72v766h17v-766h-17z" />
<glyph unicode="}" horiz-adv-x="266" d="M45 731v18q67 0 94.5 -27.5t27.5 -94.5l1 -201q0 -22 1 -36.5t5.5 -35.5t16.5 -34t31 -17v-15q-19 -4 -31 -16.5t-16.5 -33.5t-5.5 -35.5t-1 -36.5l-1 -201q0 -67 -27.5 -94.5t-94.5 -27.5v18q59 0 82 22.5t23 81.5v201q0 104 46 130q-46 26 -46 130v201q0 59 -23.5 81.5 t-81.5 22.5z" />
<glyph unicode="~" horiz-adv-x="599" d="M91 315l-14 7q24 47 64 65t82 8.5t83 -40.5q29 -22 57 -33.5t56 -12t52 17t40 53.5l14 -6q-18 -40 -44.5 -60t-57 -20.5t-63 12t-65.5 37.5q-36 26 -73.5 34.5t-73 -6.5t-57.5 -56z" />
<glyph unicode="&#xa1;" horiz-adv-x="192" d="M105 364v-588h-18v588h18zM97 487q16 0 16 -16q0 -15 -16 -15q-17 0 -17 15q0 7 5 11.5t12 4.5z" />
<glyph unicode="&#xa2;" horiz-adv-x="605" d="M532 361l-16 -6q-33 81 -125 112l-153 -445q88 -29 173.5 5.5t115.5 123.5l17 -5q-22 -65 -74.5 -105t-113.5 -46.5t-124 11.5l-28 -83h-16l30 89q-67 27 -108.5 86.5t-41.5 144.5q0 55 19 101t51 75.5t73 49.5t84 22.5t86 -5.5l26 75h16l-26 -78q100 -32 135 -122z M224 28l152 442q-68 14 -133.5 -6t-111.5 -78t-46 -143q0 -78 38.5 -134t100.5 -81z" />
<glyph unicode="&#xa3;" horiz-adv-x="655" d="M157 169q13 61 -11 176h-95v18h92q-16 63 -8 125t31.5 111t76 79.5t125.5 30.5q115 0 189 -71l-12 -13q-68 67 -177 67q-70 0 -119 -29.5t-69 -76.5t-27 -105.5t7 -117.5h267v-18h-263q24 -115 10 -180q-12 -60 -56 -119q35 16 87.5 12t92.5 -15.5t92.5 -23.5t88.5 -12 q47 0 71.5 27t26.5 96h17q0 -77 -30 -108.5t-85 -31.5q-34 0 -97 14.5t-113.5 27t-105 7t-84.5 -38.5h-19v4q42 42 65 78.5t32 86.5z" />
<glyph unicode="&#xa4;" horiz-adv-x="498" d="M394 340q0 -38 -16 -68.5t-41.5 -46t-56 -23t-61 0t-56 23t-41.5 46t-16 68.5t16 68.5t41.5 46t56 23t61 0t56 -23t41.5 -46t16 -68.5zM79 505l53 -53q-44 -44 -44 -112q0 -64 37 -104l-52 -55l12 -12l53 54q43 -39 106.5 -40.5t109.5 33.5l54 -53l12 12l-52 53 q43 43 43 112q0 65 -36 104l52 55l-13 12l-51 -55q-43 40 -107.5 42t-110.5 -34l-53 54z" />
<glyph unicode="&#xa5;" horiz-adv-x="499" d="M58 700l191 -386l193 386h19v-1l-197 -393h141v-16h-147v-90h147v-16h-147v-184h-18v184h-147v16h147v90h-147v16h141l-196 393v1h20z" />
<glyph unicode="&#xa6;" horiz-adv-x="213" d="M98 402v292h17v-292h-17zM98 -6v296h17v-296h-17z" />
<glyph unicode="&#xa7;" horiz-adv-x="641" d="M553 577l-19 -1q-3 36 -26 62.5t-58 40t-70.5 19.5t-69.5 5q-47 -2 -91.5 -15t-81 -45.5t-36.5 -79.5q0 -22 7.5 -39t23.5 -28.5t32.5 -19t44.5 -13t48 -8.5t53 -7q6 -1 9 -1q50 -5 77.5 -9t67 -14.5t60.5 -26t36.5 -42.5t15.5 -64q-2 -52 -36.5 -90.5t-86.5 -56.5 q60 -16 91.5 -47t31.5 -89q-1 -42 -25.5 -74.5t-63.5 -50.5t-79 -27t-81 -10t-84 6.5t-84 24.5t-68.5 50t-30.5 76l20 1q3 -40 28.5 -69.5t64 -44t77.5 -21t77 -5.5q37 1 73.5 9t74 23.5t60.5 44.5t23 67q0 28 -10.5 50t-32.5 36.5t-43.5 24t-55.5 16t-56 9t-56.5 5.5 t-47.5 5q-77 9 -122.5 40.5t-51.5 100.5q-4 58 33 95t97 53q-62 13 -95.5 41t-33.5 79q0 40 21.5 71t57 48.5t72.5 27t76 11.5q51 2 102.5 -10.5t94 -47t46.5 -86.5zM424 149q54 13 94 51.5t40 90.5q0 24 -8 43t-18 31.5t-31.5 23t-37 16t-46.5 11t-47.5 7.5t-51.5 6 q-62 7 -71 9q-63 -12 -106.5 -48t-40.5 -94q3 -62 45.5 -89.5t112.5 -34.5q141 -18 166 -23z" />
<glyph unicode="&#xa8;" horiz-adv-x="426" d="M119 668q-8 0 -13.5 5.5t-5.5 12.5q0 19 19 19q20 0 20 -19q0 -7 -6 -12.5t-14 -5.5zM308 668q-8 0 -13.5 5.5t-5.5 12.5q0 19 19 19q20 0 20 -19q0 -7 -6 -12.5t-14 -5.5z" />
<glyph unicode="&#xa9;" horiz-adv-x="797" d="M732 347q0 -107 -49.5 -186t-123.5 -114.5t-160.5 -35.5t-160.5 35.5t-123.5 114.5t-49.5 186q0 81 28.5 147t75.5 106t107 62t122.5 22t122.5 -22t107 -62t75.5 -106t28.5 -147zM555 419l-17 -6q-16 49 -63 70.5t-96 13.5t-87.5 -48.5t-38.5 -102.5q0 -50 25.5 -87 t63.5 -50.5t78.5 -12.5t75 25.5t48.5 65.5l17 -5q-16 -46 -55 -74t-84.5 -29.5t-88 13.5t-70.5 56t-28 98q0 56 28 97.5t70 57t86.5 15t82.5 -26.5t53 -70zM714 347q0 102 -46.5 177t-117 108.5t-152 33.5t-152 -33.5t-117 -108.5t-46.5 -177t46.5 -177t117 -108.5 t152 -33.5t152 33.5t117 108.5t46.5 177z" />
<glyph unicode="&#xaa;" horiz-adv-x="499" d="M375 576v-199q0 -30 44 -23l3 -16q-66 -10 -66 40v29q-45 -68 -150 -68q-53 0 -88.5 28.5t-35.5 80.5q0 54 41 83t97 29q83 -5 136 -33v49q0 111 -128 111q-62 0 -109 -29l-9 15q51 31 118 31t106.5 -31.5t40.5 -96.5zM98 235v17h309v-17h-309zM356 441v68 q-61 32 -136 34q-48 0 -84 -24t-36 -71q0 -45 30 -68.5t76 -23.5q51 0 93 21.5t57 63.5z" />
<glyph unicode="&#xab;" horiz-adv-x="423" d="M186 549l11 -6l-111 -197l111 -195l-11 -7l-120 202zM338 549l11 -6l-111 -197l111 -195l-11 -7l-120 202z" />
<glyph unicode="&#xac;" horiz-adv-x="550" d="M97 340v17h373v-207h-17v190h-356z" />
<glyph unicode="&#xad;" horiz-adv-x="451" d="M376 325h-301v17h301v-17z" />
<glyph unicode="&#xae;" horiz-adv-x="795" d="M730 350q0 -81 -28.5 -147t-75.5 -106t-106.5 -62t-122 -22t-122 22t-106.5 62t-75.5 106t-28.5 147t28.5 147t75.5 106t106.5 62t122 22t122 -22t106.5 -62t75.5 -106t28.5 -147zM318 183h-18v330h124q47 0 78.5 -28t31.5 -75q0 -42 -25.5 -69.5t-67.5 -32.5l104 -124 v-1h-21l-104 124h-102v-124zM318 495v-170h106q40 0 66 22.5t26 62.5q0 38 -26.5 61.5t-65.5 23.5h-106zM713 350q0 102 -46.5 177t-117 108.5t-152 33.5t-152 -33.5t-117 -108.5t-46.5 -177t46.5 -177t117 -108.5t152 -33.5t152 33.5t117 108.5t46.5 177z" />
<glyph unicode="&#xaf;" horiz-adv-x="499" d="M375 679h-274v17h274v-17z" />
<glyph unicode="&#xb0;" horiz-adv-x="419" d="M340 564q0 34 -14.5 60.5t-37.5 40.5t-50.5 20.5t-55.5 0t-51 -20.5t-37.5 -40.5t-14.5 -60.5t14.5 -61t37.5 -41t51 -20.5t55.5 0t50.5 20.5t37.5 41t14.5 61zM357 564q0 -54 -30.5 -90.5t-73.5 -45t-86.5 0t-74 45.5t-30.5 90t30.5 89.5t74 45t86.5 0t73.5 -45 t30.5 -89.5z" />
<glyph unicode="&#xb1;" horiz-adv-x="515" d="M251 358h-158v15h158v159h16v-159h158v-15h-158v-156h-16v156zM435 67h-355v17h355v-17z" />
<glyph unicode="&#xb2;" horiz-adv-x="413" d="M334 414v-14h-260v4l185 197q32 32 37.5 71t-20.5 67.5t-77 28.5q-48 0 -72 -19.5t-29 -61.5h-15q11 96 116 96q55 0 85.5 -30t27 -74.5t-39.5 -84.5l-168 -180h230z" />
<glyph unicode="&#xb3;" horiz-adv-x="383" d="M56 495h16q8 -41 38 -63t76 -22q55 0 88.5 27.5t33.5 78.5t-48 80.5t-99 11.5v9l138 145h-226v15h255v-4l-140 -147q53 8 95 -26t42 -84q0 -57 -37.5 -89.5t-101.5 -32.5q-53 0 -88 26.5t-42 74.5z" />
<glyph unicode="&#xb4;" horiz-adv-x="303" d="M187 693l17 -7v-2l-96 -127h-19v2z" />
<glyph unicode="&#xb6;" horiz-adv-x="681" d="M294 -181h-19v359q-72 3 -126.5 42.5t-81 97.5t-28 124.5t22 123.5t80 95t136.5 38h302v-880h-17v864h-269v-864z" />
<glyph unicode="&#xb7;" horiz-adv-x="189" d="M94 339q-8 0 -13.5 5.5t-5.5 12.5q0 19 19 19q20 0 20 -19q0 -7 -6 -12.5t-14 -5.5z" />
<glyph unicode="&#xb8;" horiz-adv-x="392" d="M200 8h15l-16 -64q47 2 76 -24.5t15 -70.5q-11 -34 -44.5 -49.5t-71 -9t-63.5 29.5v18q20 -22 54.5 -30.5t66.5 2.5t42 43q14 42 -19 62.5t-75 13.5z" />
<glyph unicode="&#xb9;" horiz-adv-x="324" d="M65 400v15h88v348h-78v15h95v-363h89v-15h-194z" />
<glyph unicode="&#xba;" horiz-adv-x="545" d="M444 532q0 55 -26 95t-64.5 58t-83.5 18t-83.5 -18t-64.5 -58t-26 -95t26 -95t64.5 -58t83.5 -18t83.5 18t64.5 58t26 95zM461 532q0 -60 -28 -104t-70.5 -64t-92 -20t-92 20t-70.5 64t-28 104q0 52 21 92.5t54.5 61.5t74.5 30.5t81.5 0t74 -30.5t54.5 -61.5t21 -92.5z M97 234v17h352v-17h-352z" />
<glyph unicode="&#xbb;" horiz-adv-x="423" d="M226 543l11 6l120 -203l-120 -202l-11 7l111 195zM74 543l11 6l120 -203l-120 -202l-11 7l111 195z" />
<glyph unicode="&#xbc;" horiz-adv-x="817" d="M713 108v113l1 128h-1l-201 -241h201zM729 92v-90h-16v90h-226v9l229 279h13v-272h45v-16h-45zM55 330v15h88v348h-78v15h95v-363h89v-15h-194zM257 1h-19l338 699h20z" />
<glyph unicode="&#xbd;" horiz-adv-x="849" d="M55 330v15h88v348h-78v15h95v-363h89v-15h-194zM255 1h-19l338 699h20zM802 16v-16h-260v4l188 198q30 33 36.5 71t-19 66.5t-82.5 28.5q-48 0 -71 -19t-28 -62h-15q5 49 32.5 72.5t83.5 23.5q57 0 88.5 -30t28 -74t-41.5 -85q-69 -72 -166 -178h226z" />
<glyph unicode="&#xbe;" horiz-adv-x="845" d="M741 108v113l1 128h-1l-201 -241h201zM757 92v-90h-16v90h-226v9l229 279h13v-272h45v-16h-45zM285 1h-19l338 699h20zM53 425h16q8 -41 38 -63.5t76 -22.5q55 0 88.5 28t33.5 79q0 52 -46 82t-101 10v9l138 146h-226v14h255v-4l-140 -147q55 8 96 -26t41 -84 q0 -57 -37.5 -89.5t-101.5 -32.5q-53 0 -88 26.5t-42 74.5z" />
<glyph unicode="&#xbf;" horiz-adv-x="469" d="M415 -73h17q-11 -79 -66 -116t-138 -37q-79 0 -133.5 46t-54.5 123q0 43 14.5 75.5t36 52t47 45.5t47 53t36 77.5t14.5 116.5h18q0 -59 -11 -105t-28 -75t-37.5 -52t-41.5 -41.5t-38 -37.5t-28 -46.5t-11 -62.5q0 -71 49 -111t121 -40q165 0 187 135zM245 487 q17 0 17 -17q0 -15 -17 -15t-17 15q0 17 17 17z" />
<glyph unicode="&#xc0;" d="M687 0h-18l-110 231h-408l-110 -231h-18v1l329 700h8l327 -700v-1zM158 248h394l-196 419zM257 899l15 11l98 -134v-2h-19l-94 123v2z" />
<glyph unicode="&#xc1;" d="M687 0h-18l-110 231h-408l-110 -231h-18v1l329 700h8l327 -700v-1zM158 248h394l-196 419zM435 904l17 -7v-2l-96 -127h-19v2z" />
<glyph unicode="&#xc2;" d="M687 0h-18l-110 231h-408l-110 -231h-18v1l329 700h8l327 -700v-1zM158 248h394l-196 419zM501 759h-23l-119 105l-121 -105h-24v3l135 116h18l134 -118v-1z" />
<glyph unicode="&#xc3;" d="M687 0h-18l-110 231h-408l-110 -231h-18v1l329 700h8l327 -700v-1zM158 248h394l-196 419zM239 777l-11 8q57 83 136 25q66 -49 114 20l11 -8q-54 -84 -134 -26q-67 50 -116 -19z" />
<glyph unicode="&#xc4;" d="M687 0h-18l-110 231h-408l-110 -231h-18v1l329 700h8l327 -700v-1zM158 248h394l-196 419zM260 765q-8 0 -13.5 5.5t-5.5 12.5q0 19 19 19q20 0 20 -19q0 -7 -6 -12.5t-14 -5.5zM449 765q-8 0 -13.5 5.5t-5.5 12.5q0 19 19 19q20 0 20 -19q0 -7 -6 -12.5t-14 -5.5z" />
<glyph unicode="&#xc5;" d="M440 794q0 30 -17.5 50.5t-43 25t-51 0t-43 -25t-17.5 -50.5t17.5 -50.5t43 -25t51 0t43 25t17.5 50.5zM158 248h394l-196 419zM687 0h-18l-110 231h-408l-110 -231h-18v1l328 698q-40 0 -70 26t-30 69q0 46 32.5 72t71 26t71 -26t32.5 -72q0 -44 -28.5 -68.5 t-68.5 -26.5l326 -698v-1z" />
<glyph unicode="&#xc6;" horiz-adv-x="829" d="M418 248v428l-239 -428h239zM746 371v-18h-310v-336h325v-17h-343v232h-248l-128 -232h-19v2l386 696h350v-17h-323v-310h310z" />
<glyph unicode="&#xc7;" horiz-adv-x="763" d="M708 521h-19q-39 80 -114.5 125t-166.5 45q-147 2 -239.5 -95.5t-92.5 -245.5t92 -244.5t239 -96.5q96 0 174.5 48.5t113.5 135.5h18q-35 -91 -115 -145t-179 -56l-15 -61q47 2 75.5 -23.5t15.5 -71.5q-11 -34 -44.5 -49.5t-71 -9t-63.5 29.5v18q20 -22 54.5 -30.5 t66.5 2.5t42 43q14 42 -19 62.5t-75 13.5l19 76q-153 0 -249.5 101.5t-96.5 256.5t98 258t253 101q98 -2 179 -51t120 -137z" />
<glyph unicode="&#xc8;" horiz-adv-x="575" d="M500 700v-17h-378v-313h365v-16h-365v-337h380v-17h-397v700h395zM222 897l15 11l98 -134v-2h-19l-94 123v2z" />
<glyph unicode="&#xc9;" horiz-adv-x="575" d="M500 700v-17h-378v-313h365v-16h-365v-337h380v-17h-397v700h395zM382 906l17 -7v-2l-96 -127h-19v2z" />
<glyph unicode="&#xca;" horiz-adv-x="575" d="M500 700v-17h-378v-313h365v-16h-365v-337h380v-17h-397v700h395zM445 776h-22l-114 103l-115 -103h-23v3l129 114h17l128 -116v-1z" />
<glyph unicode="&#xcb;" horiz-adv-x="575" d="M500 700v-17h-378v-313h365v-16h-365v-337h380v-17h-397v700h395zM207 785q-8 0 -13.5 5.5t-5.5 12.5q0 19 19 19q20 0 20 -19q0 -7 -6 -12.5t-14 -5.5zM396 785q-8 0 -13.5 5.5t-5.5 12.5q0 19 19 19q20 0 20 -19q0 -7 -6 -12.5t-14 -5.5z" />
<glyph unicode="&#xcc;" horiz-adv-x="358" d="M322 685h-134v-669h143v-16h-304v16h143v669h-134v15h286v-15zM81 892l15 11l98 -134v-2h-19l-94 123v2z" />
<glyph unicode="&#xcd;" horiz-adv-x="358" d="M322 685h-134v-669h143v-16h-304v16h143v669h-134v15h286v-15zM261 905l17 -7v-2l-96 -127h-19v2z" />
<glyph unicode="&#xce;" horiz-adv-x="358" d="M322 685h-134v-669h143v-16h-304v16h143v669h-134v15h286v-15zM318 762h-22l-113 102l-116 -102h-23v3l129 113h17l128 -115v-1z" />
<glyph unicode="&#xcf;" horiz-adv-x="358" d="M322 685h-134v-669h143v-16h-304v16h143v669h-134v15h286v-15zM85 789q-8 0 -13.5 5.5t-5.5 12.5q0 19 19 19q20 0 20 -19q0 -7 -6 -12.5t-14 -5.5zM274 789q-8 0 -13.5 5.5t-5.5 12.5q0 19 19 19q20 0 20 -19q0 -7 -6 -12.5t-14 -5.5z" />
<glyph unicode="&#xd0;" horiz-adv-x="736" d="M20 336v16h85v348h234q151 0 244.5 -100t93.5 -251t-94 -250t-244 -99h-234v336h-85zM339 682h-216v-330h140v-16h-140v-319h215q143 0 232.5 94t89.5 238q0 143 -89 238t-232 95z" />
<glyph unicode="&#xd1;" horiz-adv-x="740" d="M617 701h18v-701h-8l-505 661v-661h-17v701h10l502 -659v659zM249 797l-11 8q57 83 136 25q66 -49 114 20l11 -8q-54 -84 -134 -26q-67 50 -116 -19z" />
<glyph unicode="&#xd2;" horiz-adv-x="822" d="M746 350q0 150 -94 246t-242 96q-147 0 -240.5 -96t-93.5 -246t93.5 -246.5t240.5 -96.5q148 0 242 96.5t94 246.5zM764 350q0 -158 -99 -259t-255 -101q-155 0 -253.5 101t-98.5 259t98.5 259t253.5 101q156 0 255 -101t99 -259zM313 915l15 11l98 -134v-2h-19l-94 123 v2z" />
<glyph unicode="&#xd3;" horiz-adv-x="822" d="M746 350q0 150 -94 246t-242 96q-147 0 -240.5 -96t-93.5 -246t93.5 -246.5t240.5 -96.5q148 0 242 96.5t94 246.5zM764 350q0 -158 -99 -259t-255 -101q-155 0 -253.5 101t-98.5 259t98.5 259t253.5 101q156 0 255 -101t99 -259zM491 921l17 -7v-2l-96 -127h-19v2z" />
<glyph unicode="&#xd4;" horiz-adv-x="822" d="M746 350q0 150 -94 246t-242 96q-147 0 -240.5 -96t-93.5 -246t93.5 -246.5t240.5 -96.5q148 0 242 96.5t94 246.5zM764 350q0 -158 -99 -259t-255 -101q-155 0 -253.5 101t-98.5 259t98.5 259t253.5 101q156 0 255 -101t99 -259zM554 787h-23l-119 105l-121 -105h-24v3 l135 116h18l134 -118v-1z" />
<glyph unicode="&#xd5;" horiz-adv-x="822" d="M746 350q0 150 -94 246t-242 96q-147 0 -240.5 -96t-93.5 -246t93.5 -246.5t240.5 -96.5q148 0 242 96.5t94 246.5zM764 350q0 -158 -99 -259t-255 -101q-155 0 -253.5 101t-98.5 259t98.5 259t253.5 101q156 0 255 -101t99 -259zM290 807l-11 8q57 83 136 25 q66 -49 114 20l11 -8q-54 -84 -134 -26q-67 50 -116 -19z" />
<glyph unicode="&#xd6;" horiz-adv-x="822" d="M746 350q0 150 -94 246t-242 96q-147 0 -240.5 -96t-93.5 -246t93.5 -246.5t240.5 -96.5q148 0 242 96.5t94 246.5zM764 350q0 -158 -99 -259t-255 -101q-155 0 -253.5 101t-98.5 259t98.5 259t253.5 101q156 0 255 -101t99 -259zM324 817q-8 0 -13.5 5.5t-5.5 12.5 q0 19 19 19q20 0 20 -19q0 -7 -6 -12.5t-14 -5.5zM513 817q-8 0 -13.5 5.5t-5.5 12.5q0 19 19 19q20 0 20 -19q0 -7 -6 -12.5t-14 -5.5z" />
<glyph unicode="&#xd7;" horiz-adv-x="419" d="M198 347l-119 120l10 10l120 -119l120 120l11 -11l-120 -121l117 -117l-10 -11l-118 118l-118 -118l-11 11z" />
<glyph unicode="&#xd8;" horiz-adv-x="820" d="M744 348q0 100 -40.5 174.5t-109.5 116.5l-349 -591q77 -41 165 -41q146 0 240 96.5t94 244.5zM229 56l350 592q-77 41 -169 41q-147 0 -240.5 -95.5t-93.5 -245.5q0 -197 153 -292zM169 -44v1l52 85q-74 45 -118 122.5t-44 183.5q0 158 98.5 259t252.5 101q98 0 179 -45 l44 78h20v-1l-50 -86q74 -45 116.5 -122.5t42.5 -183.5q0 -156 -99 -257t-253 -101q-95 0 -174 43l-46 -77h-21z" />
<glyph unicode="&#xd9;" horiz-adv-x="706" d="M97 700h18v-458q0 -109 65 -171t175 -62q108 0 173 62.5t65 170.5v458h16v-458q0 -116 -68.5 -183.5t-185.5 -67.5t-187.5 68t-70.5 183v458zM273 900l15 11l98 -134v-2h-19l-94 123v2z" />
<glyph unicode="&#xda;" horiz-adv-x="706" d="M97 700h18v-458q0 -109 65 -171t175 -62q108 0 173 62.5t65 170.5v458h16v-458q0 -116 -68.5 -183.5t-185.5 -67.5t-187.5 68t-70.5 183v458zM422 914l17 -7v-2l-96 -127h-19v2z" />
<glyph unicode="&#xdb;" horiz-adv-x="706" d="M97 700h18v-458q0 -109 65 -171t175 -62q108 0 173 62.5t65 170.5v458h16v-458q0 -116 -68.5 -183.5t-185.5 -67.5t-187.5 68t-70.5 183v458zM496 788h-23l-119 105l-121 -105h-24v3l135 116h18l134 -118v-1z" />
<glyph unicode="&#xdc;" horiz-adv-x="706" d="M97 700h18v-458q0 -109 65 -171t175 -62q108 0 173 62.5t65 170.5v458h16v-458q0 -116 -68.5 -183.5t-185.5 -67.5t-187.5 68t-70.5 183v458zM258 819q-8 0 -13.5 5.5t-5.5 12.5q0 19 19 19q20 0 20 -19q0 -7 -6 -12.5t-14 -5.5zM447 819q-8 0 -13.5 5.5t-5.5 12.5 q0 19 19 19q20 0 20 -19q0 -7 -6 -12.5t-14 -5.5z" />
<glyph unicode="&#xdd;" horiz-adv-x="622" d="M320 0h-18v294l-265 405v1h20l254 -386l254 386h19v-2l-264 -404v-294zM381 921l17 -7v-2l-96 -127h-19v2z" />
<glyph unicode="&#xde;" horiz-adv-x="649" d="M122 563v-418h244q95 0 159 58t64 151t-63.5 151t-159.5 58h-244zM366 129h-244v-129h-17v700h17v-121h244q104 0 172.5 -62.5t68.5 -162.5q0 -101 -69 -163t-172 -62z" />
<glyph unicode="&#xdf;" horiz-adv-x="557" d="M228 -4v18q120 -29 193 20t73 172q0 45 -22.5 86.5t-58.5 66.5t-81 34.5t-89 -9.5v24l204 256q-64 21 -120 27t-109 -5.5t-84 -56.5t-31 -122v-506h-18v506q0 55 15.5 95.5t39 62.5t58.5 33t68 12.5t73.5 -4t68 -12.5t59.5 -16v-17l-206 -256q90 22 170 -39t80 -160 q0 -130 -78 -184.5t-205 -25.5z" />
<glyph unicode="&#xe0;" horiz-adv-x="585" d="M313 491q87 0 179 -46v-350q0 -26 1 -37t7 -25t20 -17t39 1l2 -18q-30 -5 -48.5 -0.5t-26 20.5t-9.5 31.5t-2 44.5v40q-23 -65 -78.5 -103t-124.5 -38q-103 0 -161 73t-58 178q0 112 72.5 179t187.5 67zM71 245q0 -98 53 -165t148 -67t149 64t54 168v188q-80 41 -162 41 q-107 0 -174.5 -61.5t-67.5 -167.5zM242 707l14 11l90 -124v-1h-17l-87 113v1z" />
<glyph unicode="&#xe1;" horiz-adv-x="585" d="M313 491q87 0 179 -46v-350q0 -26 1 -37t7 -25t20 -17t39 1l2 -18q-30 -5 -48.5 -0.5t-26 20.5t-9.5 31.5t-2 44.5v40q-23 -65 -78.5 -103t-124.5 -38q-103 0 -161 73t-58 178q0 112 72.5 179t187.5 67zM71 245q0 -98 53 -165t148 -67t149 64t54 168v188q-80 41 -162 41 q-107 0 -174.5 -61.5t-67.5 -167.5zM385 713l16 -7v-2l-90 -119h-18v2z" />
<glyph unicode="&#xe2;" horiz-adv-x="585" d="M313 491q87 0 179 -46v-350q0 -26 1 -37t7 -25t20 -17t39 1l2 -18q-30 -5 -48.5 -0.5t-26 20.5t-9.5 31.5t-2 44.5v40q-23 -65 -78.5 -103t-124.5 -38q-103 0 -161 73t-58 178q0 112 72.5 179t187.5 67zM71 245q0 -98 53 -165t148 -67t149 64t54 168v188q-80 41 -162 41 q-107 0 -174.5 -61.5t-67.5 -167.5zM437 589h-20l-105 101l-107 -101h-21v3l119 111h16l118 -113v-1z" />
<glyph unicode="&#xe3;" horiz-adv-x="585" d="M313 491q87 0 179 -46v-350q0 -26 1 -37t7 -25t20 -17t39 1l2 -18q-30 -5 -48.5 -0.5t-26 20.5t-9.5 31.5t-2 44.5v40q-23 -65 -78.5 -103t-124.5 -38q-103 0 -161 73t-58 178q0 112 72.5 179t187.5 67zM71 245q0 -98 53 -165t148 -67t149 64t54 168v188q-80 41 -162 41 q-107 0 -174.5 -61.5t-67.5 -167.5zM188 647l-10 7q54 76 127 23q61 -45 106 19l10 -8q-51 -78 -125 -24q-62 46 -108 -17z" />
<glyph unicode="&#xe4;" horiz-adv-x="585" d="M217 647q-8 0 -13.5 5.5t-5.5 12.5q0 19 19 19q20 0 20 -19q0 -7 -6 -12.5t-14 -5.5zM406 647q-8 0 -13.5 5.5t-5.5 12.5q0 19 19 19q20 0 20 -19q0 -7 -6 -12.5t-14 -5.5zM313 491q87 0 179 -46v-350q0 -26 1 -37t7 -25t20 -17t39 1l2 -18q-30 -5 -48.5 -0.5t-26 20.5 t-9.5 31.5t-2 44.5v40q-23 -65 -78.5 -103t-124.5 -38q-103 0 -161 73t-58 178q0 112 72.5 179t187.5 67zM71 245q0 -98 53 -165t148 -67t149 64t54 168v188q-80 41 -162 41q-107 0 -174.5 -61.5t-67.5 -167.5z" />
<glyph unicode="&#xe5;" horiz-adv-x="585" d="M313 491q87 0 179 -46v-350q0 -26 1 -37t7 -25t20 -17t39 1l2 -18q-30 -5 -48.5 -0.5t-26 20.5t-9.5 31.5t-2 44.5v40q-23 -65 -78.5 -103t-124.5 -38q-103 0 -161 73t-58 178q0 112 72.5 179t187.5 67zM71 245q0 -98 53 -165t148 -67t149 64t54 168v188q-80 41 -162 41 q-107 0 -174.5 -61.5t-67.5 -167.5zM387 654q0 31 -24.5 49t-54.5 18t-54.5 -18t-24.5 -49t24.5 -49t54.5 -18t54.5 18t24.5 49zM403 654q0 -38 -29.5 -59.5t-65.5 -21.5t-65.5 21.5t-29.5 59.5q0 51 47.5 72t95 0t47.5 -72z" />
<glyph unicode="&#xe6;" horiz-adv-x="886" d="M438 243v191q-73 41 -147 41q-97 0 -158 -63t-61 -169q0 -114 51.5 -176t132.5 -62q83 0 132.5 72.5t49.5 165.5zM460 298q31 -36 87.5 -54t110.5 -18q38 0 71 9t60 36t31 68q5 44 -20 76t-61.5 45t-75.5 13q-81 1 -134.5 -44.5t-68.5 -130.5zM815 41l-1 -19 q-71 -31 -145 -31q-80 2 -136.5 41.5t-79.5 109.5v-142h-15v146q-17 -66 -68 -112t-114 -46q-88 0 -145 67.5t-57 187.5q0 113 66.5 180.5t170.5 67.5q78 0 162 -46v-103q24 71 78 110.5t134 39.5q44 0 84 -15.5t67 -51.5t22 -86q-3 -36 -20.5 -62.5t-44.5 -40t-55.5 -20 t-59.5 -6.5q-56 0 -110.5 17t-91.5 52q-12 -119 45.5 -195t167.5 -76q72 -2 146 33z" />
<glyph unicode="&#xe7;" horiz-adv-x="569" d="M516 364h-18q-30 67 -102 94t-144 13t-127 -74.5t-55 -152.5q0 -63 26.5 -113t67.5 -77t91.5 -37t98.5 0t89 42t61 81h19q-27 -70 -86.5 -108t-131.5 -38l-13 -53q47 2 76 -24.5t15 -70.5q-11 -34 -44.5 -49.5t-71 -9t-63.5 29.5v18q20 -22 54.5 -30.5t66.5 2.5t42 43 q14 42 -19 62.5t-75 13.5l17 69q-97 4 -167 70t-70 179q0 67 28.5 120t73 82.5t99 40.5t105.5 1.5t94 -42t63 -82.5z" />
<glyph unicode="&#xe8;" horiz-adv-x="542" d="M471 43l-1 -20q-78 -31 -161 -31q-133 2 -201.5 84.5t-50.5 212.5q14 95 79.5 149t168.5 54q78 0 138 -40t52 -113q-3 -36 -22.5 -62t-49.5 -40t-61 -20t-65 -6q-61 0 -122 17t-101 51q-14 -118 49.5 -193.5t185.5 -75.5q79 -2 162 33zM78 298q36 -35 97.5 -53t121.5 -18 q30 0 58.5 5.5t55.5 17.5t45 35t21 54q5 45 -22.5 76.5t-67.5 44.5t-84 13q-90 1 -149 -44.5t-76 -130.5zM213 706l14 10l92 -126v-2h-18l-88 116v2z" />
<glyph unicode="&#xe9;" horiz-adv-x="542" d="M471 43l-1 -20q-78 -31 -161 -31q-133 2 -201.5 84.5t-50.5 212.5q14 95 79.5 149t168.5 54q78 0 138 -40t52 -113q-3 -36 -22.5 -62t-49.5 -40t-61 -20t-65 -6q-61 0 -122 17t-101 51q-14 -118 49.5 -193.5t185.5 -75.5q79 -2 162 33zM78 298q36 -35 97.5 -53t121.5 -18 q30 0 58.5 5.5t55.5 17.5t45 35t21 54q5 45 -22.5 76.5t-67.5 44.5t-84 13q-90 1 -149 -44.5t-76 -130.5zM357 715l16 -7v-2l-90 -118h-17v2z" />
<glyph unicode="&#xea;" horiz-adv-x="542" d="M471 43l-1 -20q-78 -31 -161 -31q-133 2 -201.5 84.5t-50.5 212.5q14 95 79.5 149t168.5 54q78 0 138 -40t52 -113q-3 -36 -22.5 -62t-49.5 -40t-61 -20t-65 -6q-61 0 -122 17t-101 51q-14 -118 49.5 -193.5t185.5 -75.5q79 -2 162 33zM78 298q36 -35 97.5 -53t121.5 -18 q30 0 58.5 5.5t55.5 17.5t45 35t21 54q5 45 -22.5 76.5t-67.5 44.5t-84 13q-90 1 -149 -44.5t-76 -130.5zM427 599h-21l-111 97l-112 -97h-22v3l125 107h17l124 -109v-1z" />
<glyph unicode="&#xeb;" horiz-adv-x="542" d="M471 43l-1 -20q-78 -31 -161 -31q-133 2 -201.5 84.5t-50.5 212.5q14 95 79.5 149t168.5 54q78 0 138 -40t52 -113q-3 -36 -22.5 -62t-49.5 -40t-61 -20t-65 -6q-61 0 -122 17t-101 51q-14 -118 49.5 -193.5t185.5 -75.5q79 -2 162 33zM78 298q36 -35 97.5 -53t121.5 -18 q30 0 58.5 5.5t55.5 17.5t45 35t21 54q5 45 -22.5 76.5t-67.5 44.5t-84 13q-90 1 -149 -44.5t-76 -130.5zM206 654q-7 0 -12 5t-5 12q0 17 17 17q19 0 19 -17q0 -7 -5.5 -12t-13.5 -5zM381 654q-7 0 -12 5t-5 12q0 17 17 17q19 0 19 -17q0 -7 -5.5 -12t-13.5 -5z" />
<glyph unicode="&#xec;" horiz-adv-x="199" d="M91 480h17v-480h-17v480zM10 710l15 10l94 -129v-2h-18l-91 119v2z" />
<glyph unicode="&#xed;" horiz-adv-x="199" d="M91 480h17v-480h-17v480zM184 724l16 -7v-2l-92 -122h-18v2z" />
<glyph unicode="&#xee;" horiz-adv-x="199" d="M91 480h17v-480h-17v480zM222 598h-19l-100 109l-102 -109h-21v4l114 120h15l113 -123v-1z" />
<glyph unicode="&#xef;" horiz-adv-x="199" d="M34 638q-8 0 -13.5 5.5t-5.5 12.5q0 19 19 19q20 0 20 -19q0 -7 -6 -12.5t-14 -5.5zM167 638q-8 0 -13.5 5.5t-5.5 12.5q0 19 19 19q20 0 20 -19q0 -7 -6 -12.5t-14 -5.5zM91 480h17v-480h-17v480z" />
<glyph unicode="&#xf0;" horiz-adv-x="603" d="M244 694h26q53 -32 106 -86l71 52l9 -13l-69 -50q73 -79 117 -176t44 -190q0 -58 -21 -104.5t-56 -75t-79.5 -44.5t-90.5 -16t-90.5 16t-79.5 44.5t-56 75t-21 104.5q0 62 25 111.5t65 77.5t90.5 40.5t100 6.5t95.5 -30.5t75 -64.5q-41 118 -130 216l-74 -52l-9 13l71 51 q-55 58 -119 93v1zM72 231q0 -71 34 -123t85 -75t110 -23t110 23t85 75t34 123q0 70 -34 122t-85 75.5t-110 23.5t-110 -23.5t-85 -75.5t-34 -122z" />
<glyph unicode="&#xf1;" horiz-adv-x="592" d="M31 469l-2 16q50 7 68 -10t18 -66v-34q23 56 72.5 86.5t111.5 30.5q88 0 142.5 -56t54.5 -143v-197v-20t0.5 -16.5t2.5 -16t5 -12t8 -10.5l12.5 -5t18 -2.5t23.5 2.5v-18q-56 -9 -71.5 13.5t-15.5 84.5v197q0 80 -50 130.5t-130 50.5q-82 0 -133 -51.5t-51 -133.5v-289 h-17v409q0 40 -13 53t-54 7zM158 645l-10 7q54 78 128 24q61 -46 108 19l10 -8q-51 -79 -126 -24q-63 46 -110 -18z" />
<glyph unicode="&#xf2;" horiz-adv-x="610" d="M539 242q0 63 -26 113t-67 75.5t-91.5 37.5t-100.5 0t-91 -37.5t-67 -75.5t-26 -113t26 -113t67 -75.5t91 -37.5t100.5 0t91.5 37.5t67 75.5t26 113zM557 242q0 -79 -37.5 -137t-93.5 -84.5t-121 -26.5t-121 26.5t-93.5 84.5t-37.5 137t37.5 137t93.5 84.5t121 26.5 t121 -26.5t93.5 -84.5t37.5 -137zM229 717l14 10l91 -124v-1h-18l-87 113v2z" />
<glyph unicode="&#xf3;" horiz-adv-x="610" d="M539 242q0 63 -26 113t-67 75.5t-91.5 37.5t-100.5 0t-91 -37.5t-67 -75.5t-26 -113t26 -113t67 -75.5t91 -37.5t100.5 0t91.5 37.5t67 75.5t26 113zM557 242q0 -79 -37.5 -137t-93.5 -84.5t-121 -26.5t-121 26.5t-93.5 84.5t-37.5 137t37.5 137t93.5 84.5t121 26.5 t121 -26.5t93.5 -84.5t37.5 -137zM378 724l16 -7v-2l-90 -118h-17v2z" />
<glyph unicode="&#xf4;" horiz-adv-x="610" d="M539 242q0 63 -26 113t-67 75.5t-91.5 37.5t-100.5 0t-91 -37.5t-67 -75.5t-26 -113t26 -113t67 -75.5t91 -37.5t100.5 0t91.5 37.5t67 75.5t26 113zM557 242q0 -79 -37.5 -137t-93.5 -84.5t-121 -26.5t-121 26.5t-93.5 84.5t-37.5 137t37.5 137t93.5 84.5t121 26.5 t121 -26.5t93.5 -84.5t37.5 -137zM441 607h-23l-109 101l-110 -101h-21v3l124 111h16l123 -113v-1z" />
<glyph unicode="&#xf5;" horiz-adv-x="610" d="M539 242q0 63 -26 113t-67 75.5t-91.5 37.5t-100.5 0t-91 -37.5t-67 -75.5t-26 -113t26 -113t67 -75.5t91 -37.5t100.5 0t91.5 37.5t67 75.5t26 113zM557 242q0 -79 -37.5 -137t-93.5 -84.5t-121 -26.5t-121 26.5t-93.5 84.5t-37.5 137t37.5 137t93.5 84.5t121 26.5 t121 -26.5t93.5 -84.5t37.5 -137zM194 657l-10 7q54 78 128 24q61 -46 108 19l10 -8q-51 -79 -126 -24q-63 46 -110 -18z" />
<glyph unicode="&#xf6;" horiz-adv-x="610" d="M539 242q0 63 -26 113t-67 75.5t-91.5 37.5t-100.5 0t-91 -37.5t-67 -75.5t-26 -113t26 -113t67 -75.5t91 -37.5t100.5 0t91.5 37.5t67 75.5t26 113zM557 242q0 -79 -37.5 -137t-93.5 -84.5t-121 -26.5t-121 26.5t-93.5 84.5t-37.5 137t37.5 137t93.5 84.5t121 26.5 t121 -26.5t93.5 -84.5t37.5 -137zM233 654q-7 0 -12 5t-5 12q0 17 17 17q19 0 19 -17q0 -7 -5.5 -12t-13.5 -5zM408 654q-7 0 -12 5t-5 12q0 17 17 17q19 0 19 -17q0 -7 -5.5 -12t-13.5 -5z" />
<glyph unicode="&#xf7;" horiz-adv-x="504" d="M250 208q-7 0 -11.5 4.5t-4.5 10.5q0 16 16 16q17 0 17 -16q0 -6 -5 -10.5t-12 -4.5zM250 477q-7 0 -11.5 4.5t-4.5 10.5q0 16 16 16q17 0 17 -16q0 -6 -5 -10.5t-12 -4.5zM424 350h-344v17h344v-17z" />
<glyph unicode="&#xf8;" horiz-adv-x="611" d="M151 -56l38 76q-61 29 -98 85.5t-37 137.5q0 62 23 112t61.5 79t85.5 44t97 12t95 -22l39 76h20l-42 -83q125 -68 125 -218q0 -61 -22.5 -110.5t-59 -78.5t-82.5 -45t-95 -14.5t-94 18.5l-35 -69h-19zM71 243q0 -75 34 -127.5t92 -80.5l211 417q-42 18 -88.5 21 t-90.5 -11t-79.5 -41.5t-57 -73.5t-21.5 -104zM540 243q0 142 -115 202l-212 -416q42 -16 87.5 -17t88 13.5t76.5 42t54.5 73.5t20.5 102z" />
<glyph unicode="&#xf9;" horiz-adv-x="564" d="M536 9l2 -16q-57 -8 -71.5 15.5t-14.5 104.5q-46 -122 -189 -122q-86 0 -134.5 57t-48.5 147v287h17v-287q0 -83 43.5 -134.5t122.5 -51.5q84 0 136 51t52 136v286h17v-371q0 -74 12 -91t56 -11zM193 716l14 10l94 -127v-2h-18l-90 117v2z" />
<glyph unicode="&#xfa;" horiz-adv-x="564" d="M536 9l2 -16q-57 -8 -71.5 15.5t-14.5 104.5q-46 -122 -189 -122q-86 0 -134.5 57t-48.5 147v287h17v-287q0 -83 43.5 -134.5t122.5 -51.5q84 0 136 51t52 136v286h17v-371q0 -74 12 -91t56 -11zM348 723l16 -7v-2l-90 -119h-18v2z" />
<glyph unicode="&#xfb;" horiz-adv-x="564" d="M536 9l2 -16q-57 -8 -71.5 15.5t-14.5 104.5q-46 -122 -189 -122q-86 0 -134.5 57t-48.5 147v287h17v-287q0 -83 43.5 -134.5t122.5 -51.5q84 0 136 51t52 136v286h17v-371q0 -74 12 -91t56 -11zM417 607h-22l-114 100l-115 -100h-23v3l129 110h17l128 -112v-1z" />
<glyph unicode="&#xfc;" horiz-adv-x="564" d="M536 9l2 -16q-57 -8 -71.5 15.5t-14.5 104.5q-46 -122 -189 -122q-86 0 -134.5 57t-48.5 147v287h17v-287q0 -83 43.5 -134.5t122.5 -51.5q84 0 136 51t52 136v286h17v-371q0 -74 12 -91t56 -11zM181 648q-8 0 -13 5.5t-5 12.5q0 19 18 19q20 0 20 -19q0 -7 -6 -12.5 t-14 -5.5zM366 648q-8 0 -13.5 5.5t-5.5 12.5q0 19 19 19q7 0 13 -5t6 -14q0 -7 -6 -12.5t-13 -5.5z" />
<glyph unicode="&#xfd;" horiz-adv-x="615" d="M123 -209l5 18q58 -34 124 -44.5t124 3t96.5 64t38.5 130.5v182q-22 -71 -73 -114t-124 -43q-97 0 -154 59.5t-57 178.5v160q0 52 -12.5 70.5t-62.5 9.5l-1 16q59 11 76.5 -13t17.5 -83v-160q0 -220 193 -220q94 0 145.5 71.5t51.5 166.5v239h17v-520q0 -84 -40 -138.5 t-101 -71.5t-131.5 -7t-132.5 46zM384 715l17 -7v-2l-96 -127h-19v2z" />
<glyph unicode="&#xfe;" horiz-adv-x="582" d="M528 245q0 -87 -41.5 -149t-104 -84.5t-138 -9t-140.5 66.5v-316h-17v966h17v-298q65 53 140.5 66.5t138 -9t104 -84.5t41.5 -149zM509 245q0 112 -67 174.5t-162 56.5t-176 -77v-308q81 -71 176 -77t162 56.5t67 174.5z" />
<glyph unicode="&#xff;" horiz-adv-x="615" d="M123 -209l5 18q58 -34 124 -44.5t124 3t96.5 64t38.5 130.5v182q-22 -71 -73 -114t-124 -43q-97 0 -154 59.5t-57 178.5v160q0 52 -12.5 70.5t-62.5 9.5l-1 16q59 11 76.5 -13t17.5 -83v-160q0 -220 193 -220q94 0 145.5 71.5t51.5 166.5v239h17v-520q0 -84 -40 -138.5 t-101 -71.5t-131.5 -7t-132.5 46zM218 652q-8 0 -13.5 5.5t-5.5 12.5q0 19 19 19q20 0 20 -19q0 -7 -6 -12.5t-14 -5.5zM407 652q-8 0 -13.5 5.5t-5.5 12.5q0 19 19 19q20 0 20 -19q0 -7 -6 -12.5t-14 -5.5z" />
<glyph unicode="&#x152;" horiz-adv-x="935" d="M865 699v-18h-323v-309h310v-19h-310v-335h325v-17h-336q-68 -15 -116 -15q-164 0 -260 100t-96 263q0 166 96.5 264t263.5 98q56 0 116 -12h330zM524 17v666q-51 10 -105 10q-160 0 -251.5 -93t-91.5 -251q0 -156 91 -250.5t248 -94.5q56 0 109 13z" />
<glyph unicode="&#x153;" horiz-adv-x="1001" d="M930 43l-1 -20q-78 -31 -161 -31q-99 2 -163.5 49t-84.5 129q-15 -62 -56.5 -104t-93 -58.5t-107.5 -10t-102.5 34.5t-76.5 83t-30 128t30 128t76.5 83t103 34t108 -10.5t93 -59.5t56.5 -105q20 85 83.5 132t159.5 47q78 0 138 -40t52 -113q-3 -36 -22.5 -62t-49.5 -40 t-61 -20t-65 -6q-61 0 -123 17t-101 51q-14 -118 50 -193.5t186 -75.5q79 -2 162 33zM512 243q0 56 -19 100.5t-50 72.5t-71 43t-81 15t-81 -15t-71 -43t-50 -72.5t-19 -100.5t19 -101t50 -72.5t71 -42.5t81 -15t81 15t71 42.5t50 72.5t19 101zM536 298q36 -34 98.5 -52.5 t121.5 -18.5q30 0 58.5 5.5t55.5 17.5t45 35t21 54q5 45 -22.5 76.5t-67.5 44.5t-84 13q-90 1 -149.5 -44.5t-76.5 -130.5z" />
<glyph unicode="&#x178;" horiz-adv-x="622" d="M320 0h-18v294l-265 405v1h20l254 -386l254 386h19v-2l-264 -404v-294zM217 775q-8 0 -13.5 5.5t-5.5 12.5q0 19 19 19q20 0 20 -19q0 -7 -6 -12.5t-14 -5.5zM406 775q-8 0 -13.5 5.5t-5.5 12.5q0 19 19 19q20 0 20 -19q0 -7 -6 -12.5t-14 -5.5z" />
<glyph unicode="&#x2c6;" horiz-adv-x="494" d="M381 585h-23l-119 105l-121 -105h-24v3l135 116h18l134 -118v-1z" />
<glyph unicode="&#x2dc;" horiz-adv-x="420" d="M86 651l-11 8q57 83 136 25q66 -49 114 20l11 -8q-54 -84 -134 -26q-67 50 -116 -19z" />
<glyph unicode="&#x2000;" horiz-adv-x="463" />
<glyph unicode="&#x2001;" horiz-adv-x="926" />
<glyph unicode="&#x2002;" horiz-adv-x="463" />
<glyph unicode="&#x2003;" horiz-adv-x="926" />
<glyph unicode="&#x2004;" horiz-adv-x="308" />
<glyph unicode="&#x2005;" horiz-adv-x="231" />
<glyph unicode="&#x2006;" horiz-adv-x="154" />
<glyph unicode="&#x2007;" horiz-adv-x="154" />
<glyph unicode="&#x2008;" horiz-adv-x="115" />
<glyph unicode="&#x2009;" horiz-adv-x="185" />
<glyph unicode="&#x200a;" horiz-adv-x="51" />
<glyph unicode="&#x2010;" horiz-adv-x="451" d="M376 325h-301v17h301v-17z" />
<glyph unicode="&#x2011;" horiz-adv-x="451" d="M376 325h-301v17h301v-17z" />
<glyph unicode="&#x2012;" horiz-adv-x="451" d="M376 325h-301v17h301v-17z" />
<glyph unicode="&#x2013;" horiz-adv-x="543" d="M468 325h-393v17h393v-17z" />
<glyph unicode="&#x2014;" horiz-adv-x="631" d="M556 325h-481v17h481v-17z" />
<glyph unicode="&#x2018;" horiz-adv-x="200" d="M81 626q0 6 1 7l20 67h17l-17 -58q12 -3 12 -16q0 -15 -16 -15q-17 0 -17 15z" />
<glyph unicode="&#x2019;" horiz-adv-x="200" d="M120 684q0 -6 -1 -7l-20 -67h-17l17 58q-12 3 -12 16q0 15 16 15q17 0 17 -15z" />
<glyph unicode="&#x201a;" horiz-adv-x="172" d="M103 8q0 -6 -1 -7l-22 -73h-17l19 64q-12 3 -12 16q0 15 16 15q17 0 17 -15z" />
<glyph unicode="&#x201c;" horiz-adv-x="308" d="M188 624q0 6 1 7l20 67h17l-17 -58q12 -3 12 -16q0 -15 -16 -15q-17 0 -17 15zM84 624q0 6 1 7l20 67h17l-17 -58q12 -3 12 -16q0 -15 -16 -15q-17 0 -17 15z" />
<glyph unicode="&#x201d;" horiz-adv-x="304" d="M120 684q0 -6 -1 -7l-20 -67h-17l17 58q-12 3 -12 16q0 15 16 15q17 0 17 -15zM224 684q0 -6 -1 -7l-20 -67h-17l17 58q-12 3 -12 16q0 15 16 15q17 0 17 -15z" />
<glyph unicode="&#x201e;" horiz-adv-x="317" d="M103 8q0 -6 -1 -7l-22 -69h-17l19 60q-12 3 -12 16q0 15 16 15q17 0 17 -15zM248 8q0 -6 -1 -7l-22 -69h-17l19 60q-12 3 -12 16q0 15 16 15q17 0 17 -15z" />
<glyph unicode="&#x2022;" horiz-adv-x="319" d="M159 299q-24 0 -41.5 17.5t-17.5 39.5q0 26 17 41.5t42 15.5t42.5 -15.5t17.5 -41.5q0 -22 -18.5 -39.5t-41.5 -17.5z" />
<glyph unicode="&#x2026;" horiz-adv-x="524" d="M94 -3q-8 0 -13.5 5.5t-5.5 12.5q0 19 19 19q20 0 20 -19q0 -7 -6 -12.5t-14 -5.5zM259 -3q-8 0 -13.5 5.5t-5.5 12.5q0 19 19 19q20 0 20 -19q0 -7 -6 -12.5t-14 -5.5zM429 -3q-8 0 -13.5 5.5t-5.5 12.5q0 19 19 19q20 0 20 -19q0 -7 -6 -12.5t-14 -5.5z" />
<glyph unicode="&#x202f;" horiz-adv-x="185" />
<glyph unicode="&#x2039;" horiz-adv-x="271" d="M186 549l11 -6l-111 -197l111 -195l-11 -7l-120 202z" />
<glyph unicode="&#x203a;" horiz-adv-x="271" d="M74 543l11 6l120 -203l-120 -202l-11 7l111 195z" />
<glyph unicode="&#x205f;" horiz-adv-x="231" />
<glyph unicode="&#x20ac;" horiz-adv-x="683" d="M56 274h85q-12 75 0 151h-85v16h88q27 121 119.5 195t221.5 72q52 0 108 -17l-7 -17q-49 17 -101 17q-123 0 -209 -68t-113 -182h317l-6 -16h-315q-13 -76 0 -151h265l-6 -16h-255q27 -112 113 -181t207 -69q65 0 128 25l5 -16q-63 -26 -133 -26q-128 0 -220 73.5 t-119 193.5h-88v16z" />
<glyph unicode="&#x2122;" horiz-adv-x="758" d="M668 422h-18v243l-126 -162h-4l-125 162v-243h-18v279h13l132 -172l133 172h13v-279zM318 701v-15h-114v-264h-17v264h-115v15h246z" />
<glyph unicode="&#x25fc;" horiz-adv-x="480" d="M0 480h480v-480h-480v480z" />
</font>
</defs>
</svg>
